<?xml version="1.0" standalone="no"?>
<!DOCTYPE svg PUBLIC "-//W3C//DTD SVG 20010904//EN"
 "http://www.w3.org/TR/2001/REC-SVG-20010904/DTD/svg10.dtd">
<svg version="1.0" xmlns="http://www.w3.org/2000/svg"
 width="573.000000pt" height="573.000000pt" viewBox="0 0 573.000000 573.000000"
 preserveAspectRatio="xMidYMid meet">
<metadata>
Created by potrace 1.11, written by Peter Selinger 2001-2013
</metadata>
<g transform="translate(0.000000,573.000000) scale(0.100000,-0.100000)"
fill="#000000" stroke="none">
<path d="M1498 4823 c776 -2 2048 -2 2825 0 776 1 141 2 -1413 2 -1554 0
-2189 -1 -1412 -2z"/>
<path d="M2875 4567 c-53 -18 -115 -51 -140 -74 -11 -10 -76 -65 -145 -120
-69 -56 -276 -227 -460 -378 -184 -152 -353 -292 -375 -310 -22 -18 -72 -59
-111 -91 -296 -245 -408 -337 -478 -394 -184 -148 -322 -264 -338 -284 -34
-41 -23 -79 49 -168 152 -189 171 -208 212 -208 33 0 57 16 227 155 221 183
368 303 479 396 44 36 199 164 345 284 430 354 566 465 678 558 58 48 116 90
129 93 41 11 67 -4 175 -93 58 -48 175 -145 260 -214 481 -396 738 -608 778
-641 40 -33 117 -96 235 -193 406 -335 419 -345 456 -345 41 0 61 20 212 208
79 97 86 132 38 179 -16 15 -164 138 -329 273 l-301 245 0 538 -1 539 -29 29
-29 29 -241 0 c-239 0 -240 0 -268 -24 l-28 -24 -5 -293 -5 -292 -125 103
c-69 57 -174 145 -235 195 -60 50 -148 122 -195 160 -47 39 -94 78 -105 88
-11 10 -48 32 -83 49 -73 36 -180 47 -247 25z"/>
<path d="M2935 3716 c-16 -8 -73 -50 -125 -93 -52 -44 -261 -216 -465 -383
-203 -167 -436 -358 -516 -425 -80 -66 -177 -145 -215 -175 -38 -30 -86 -71
-107 -92 l-37 -36 2 -589 3 -590 28 -36 c16 -21 46 -46 67 -57 38 -19 60 -20
509 -20 l470 0 28 24 28 24 5 461 5 460 23 23 c22 23 26 23 305 26 155 2 297
0 315 -3 23 -4 39 -16 52 -38 19 -30 20 -54 20 -474 l0 -441 26 -31 26 -31
474 0 c446 0 477 1 512 19 42 22 63 43 86 88 14 28 16 97 16 609 l0 576 -38
37 c-20 20 -68 61 -106 91 -38 30 -135 109 -215 175 -567 468 -1051 864 -1076
882 -42 30 -65 34 -100 19z"/>
<path d="M90 965 c0 -13 320 -15 2820 -15 2500 0 2820 2 2820 15 0 13 -320 15
-2820 15 -2500 0 -2820 -2 -2820 -15z"/>
</g>
</svg>
